{
	"asset":{
		"generator":"Khronos glTF Blender I/O v3.5.30",
		"version":"2.0"
	},
	"extensionsUsed":[
		"KHR_lights_punctual",
		"KHR_materials_specular",
		"KHR_materials_ior"
	],
	"extensionsRequired":[
		"KHR_lights_punctual"
	],
	"extensions":{
		"KHR_lights_punctual":{
			"lights":[
				{
					"color":[
						1,
						1,
						1
					],
					"intensity":54351.41306588226,
					"type":"point",
					"name":"Spot.001"
				},
				{
					"color":[
						1,
						1,
						1
					],
					"intensity":68300,
					"type":"directional",
					"name":"Spot"
				}
			]
		}
	},
	"scene":0,
	"scenes":[
		{
			"name":"Scene",
			"nodes":[
				0,
				1,
				2,
				3,
				4,
				5,
				6,
				7,
				8
			]
		}
	],
	"nodes":[
		{
			"mesh":0,
			"name":"Curve.002",
			"rotation":[
				0.6833053827285767,
				-0.28572019934654236,
				0.2617514729499817,
				0.6188246607780457
			],
			"scale":[
				16.06804656982422,
				3.368891716003418,
				14.800030708312988
			],
			"translation":[
				5.162885665893555,
				12.699482917785645,
				0.3226727247238159
			]
		},
		{
			"mesh":1,
			"name":"Curve.004",
			"rotation":[
				0.5107519626617432,
				0.4889116883277893,
				-0.5128475427627563,
				0.4869139492511749
			],
			"scale":[
				9.999999046325684,
				10,
				9.999999046325684
			],
			"translation":[
				15.808528900146484,
				11.054855346679688,
				0.10297948122024536
			]
		},
		{
			"extensions":{
				"KHR_lights_punctual":{
					"light":0
				}
			},
			"name":"Spot.001",
			"rotation":[
				-0.7071068286895752,
				0,
				0,
				0.7071068286895752
			],
			"translation":[
				0,
				27.010778427124023,
				0
			]
		},
		{
			"mesh":2,
			"name":"Mesh_0",
			"rotation":[
				0.003910937812179327,
				0.5294188857078552,
				0.016871066763997078,
				0.848183810710907
			],
			"translation":[
				-3.920145273208618,
				11.526905059814453,
				-0.08944803476333618
			]
		},
		{
			"name":"Cylinder.012",
			"rotation":[
				0,
				0.03363977372646332,
				0,
				0.9994341135025024
			],
			"scale":[
				1.0635374784469604,
				0.7820276618003845,
				1.6234846115112305
			],
			"translation":[
				-1.0906906127929688,
				4.680449485778809,
				0.055642127990722656
			]
		},
		{
			"extensions":{
				"KHR_lights_punctual":{
					"light":1
				}
			},
			"name":"Spot",
			"rotation":[
				-0.8358736038208008,
				0.3909829556941986,
				-0.18312495946884155,
				0.33898797631263733
			],
			"translation":[
				-70.57391357421875,
				184.68582153320312,
				-0.07586669921875
			]
		},
		{
			"mesh":3,
			"name":"Cylinder.056",
			"rotation":[
				0,
				0.7951414585113525,
				0,
				0.6064240336418152
			],
			"scale":[
				2.54563045501709,
				0.008885210379958153,
				2.733957290649414
			],
			"translation":[
				-3.0121657848358154,
				10.709012031555176,
				0.020340880379080772
			]
		},
		{
			"mesh":4,
			"name":"Sphere",
			"scale":[
				500,
				500,
				500
			],
			"translation":[
				0,
				7.7691450119018555,
				0
			]
		},
		{
			"camera":0,
			"name":"Camera",
			"rotation":[
				0.046705689281225204,
				0.7080479264259338,
				-0.047043584287166595,
				0.7030460238456726
			],
			"translation":[
				21.608474731445312,
				10.345392227172852,
				0.433296799659729
			]
		}
	],
	"cameras":[
		{
			"name":"Camera",
			"perspective":{
				"aspectRatio":1.7777777777777777,
				"yfov":0.39959648408210363,
				"zfar":1000,
				"znear":0.10000000149011612
			},
			"type":"perspective"
		}
	],
	"materials":[
		{
			"doubleSided":true,
			"name":"gold_rough",
			"pbrMetallicRoughness":{}
		},
		{
			"doubleSided":true,
			"name":"Material_0",
			"pbrMetallicRoughness":{
				"metallicFactor":0,
				"roughnessFactor":0.800000011920929
			}
		},
		{
			"doubleSided":true,
			"name":"Material.051",
			"pbrMetallicRoughness":{
				"baseColorFactor":[
					0,
					0,
					0,
					1
				],
				"metallicFactor":0,
				"roughnessFactor":0.5
			}
		},
		{
			"doubleSided":true,
			"name":"Material.007",
			"pbrMetallicRoughness":{
				"baseColorFactor":[
					0,
					0,
					0,
					1
				],
				"metallicFactor":0,
				"roughnessFactor":0.5
			}
		},
		{
			"doubleSided":true,
			"name":"Material.011",
			"pbrMetallicRoughness":{
				"baseColorFactor":[
					0.0832180455327034,
					0.07843399792909622,
					0.08353136479854584,
					1
				],
				"metallicFactor":0,
				"roughnessFactor":0.5
			}
		},
		{
			"doubleSided":true,
			"name":"Material.012",
			"pbrMetallicRoughness":{
				"baseColorFactor":[
					0,
					0,
					0,
					1
				],
				"metallicFactor":0,
				"roughnessFactor":0.5
			}
		},
		{
			"doubleSided":true,
			"name":"Material.013",
			"pbrMetallicRoughness":{
				"baseColorFactor":[
					0.020379163324832916,
					0.020379163324832916,
					0.020379163324832916,
					1
				],
				"metallicFactor":0,
				"roughnessFactor":0.5
			}
		},
		{
			"doubleSided":true,
			"name":"Material.023",
			"pbrMetallicRoughness":{
				"baseColorFactor":[
					0.020379163324832916,
					0.020379163324832916,
					0.020379163324832916,
					1
				],
				"metallicFactor":0,
				"roughnessFactor":0.5
			}
		},
		{
			"doubleSided":true,
			"name":"Material.022",
			"pbrMetallicRoughness":{
				"baseColorFactor":[
					0,
					0,
					0,
					1
				],
				"metallicFactor":0,
				"roughnessFactor":0.5
			}
		},
		{
			"doubleSided":true,
			"name":"Material.021",
			"pbrMetallicRoughness":{
				"baseColorFactor":[
					0.04696173593401909,
					0.04653201997280121,
					0.045270077884197235,
					1
				],
				"metallicFactor":0,
				"roughnessFactor":0.5
			}
		},
		{
			"doubleSided":true,
			"name":"Material.020",
			"pbrMetallicRoughness":{
				"baseColorFactor":[
					0.020379163324832916,
					0.020379163324832916,
					0.020379163324832916,
					1
				],
				"metallicFactor":0,
				"roughnessFactor":0.5
			}
		},
		{
			"doubleSided":true,
			"extensions":{
				"KHR_materials_specular":{
					"specularColorFactor":[
						0.44039432324185296,
						0.44039432324185296,
						0.44039432324185296
					]
				},
				"KHR_materials_ior":{
					"ior":1.4500000476837158
				}
			},
			"name":"Material.037",
			"pbrMetallicRoughness":{
				"baseColorFactor":[
					0,
					0,
					0,
					1
				],
				"metallicFactor":0,
				"roughnessFactor":0.5
			}
		},
		{
			"doubleSided":true,
			"name":"Material.035",
			"pbrMetallicRoughness":{
				"baseColorFactor":[
					0.0832180455327034,
					0.07843399792909622,
					0.08353136479854584,
					1
				],
				"metallicFactor":0,
				"roughnessFactor":0.5
			}
		},
		{
			"doubleSided":true,
			"name":"Material.041",
			"pbrMetallicRoughness":{
				"baseColorFactor":[
					0,
					0,
					0,
					1
				],
				"metallicFactor":0,
				"roughnessFactor":0.5
			}
		},
		{
			"doubleSided":true,
			"name":"Material.033",
			"pbrMetallicRoughness":{
				"baseColorFactor":[
					0.020379163324832916,
					0.020379163324832916,
					0.020379163324832916,
					1
				],
				"metallicFactor":0,
				"roughnessFactor":0.5
			}
		},
		{
			"doubleSided":true,
			"name":"Material.028",
			"pbrMetallicRoughness":{
				"baseColorFactor":[
					0,
					0,
					0,
					1
				],
				"metallicFactor":0,
				"roughnessFactor":0.5
			}
		},
		{
			"doubleSided":true,
			"extensions":{
				"KHR_materials_specular":{
					"specularColorFactor":[
						0.16938267664981926,
						0.16938267664981926,
						0.16938267664981926
					]
				},
				"KHR_materials_ior":{
					"ior":1.4500000476837158
				}
			},
			"name":"Material.026",
			"pbrMetallicRoughness":{
				"baseColorFactor":[
					0.020379163324832916,
					0.020379163324832916,
					0.020379163324832916,
					1
				],
				"metallicFactor":0,
				"roughnessFactor":0.5
			}
		},
		{
			"doubleSided":true,
			"name":"Material.001",
			"pbrMetallicRoughness":{
				"baseColorFactor":[
					0,
					0,
					0,
					1
				],
				"metallicFactor":0,
				"roughnessFactor":0.5
			}
		},
		{
			"doubleSided":true,
			"name":"Material.002",
			"pbrMetallicRoughness":{
				"baseColorFactor":[
					0.06839906424283981,
					0,
					0.09463111311197281,
					1
				],
				"metallicFactor":0,
				"roughnessFactor":0.5
			}
		},
		{
			"doubleSided":true,
			"extensions":{
				"KHR_materials_specular":{
					"specularColorFactor":[
						0.8760848556137154,
						1.0084372926049712,
						5.15404062395742
					]
				},
				"KHR_materials_ior":{
					"ior":1.4500000476837158
				}
			},
			"name":"Material",
			"pbrMetallicRoughness":{
				"baseColorFactor":[
					0,
					0.0016154851764440536,
					0.05221644788980484,
					1
				],
				"roughnessFactor":0.5
			}
		},
		{
			"doubleSided":true,
			"extensions":{
				"KHR_materials_specular":{
					"specularColorFactor":[
						0.7904524910324899,
						0.7904524910324899,
						0.7904524910324899
					]
				},
				"KHR_materials_ior":{
					"ior":1.4500000476837158
				}
			},
			"name":"Material.025",
			"pbrMetallicRoughness":{
				"baseColorFactor":[
					0.09462329745292664,
					0.03498077765107155,
					0.02839447744190693,
					1
				],
				"metallicFactor":0,
				"roughnessFactor":0.2666666507720947
			}
		},
		{
			"doubleSided":true,
			"name":"Material.006",
			"pbrMetallicRoughness":{
				"baseColorFactor":[
					0,
					0,
					0,
					1
				],
				"metallicFactor":0,
				"roughnessFactor":0.5
			}
		},
		{
			"doubleSided":true,
			"name":"Material.009",
			"pbrMetallicRoughness":{
				"baseColorFactor":[
					0.06839906424283981,
					0,
					0.09463111311197281,
					1
				],
				"metallicFactor":0,
				"roughnessFactor":0.5
			}
		},
		{
			"doubleSided":true,
			"name":"Material.018",
			"pbrMetallicRoughness":{
				"baseColorFactor":[
					0.06839906424283981,
					0,
					0.09463111311197281,
					1
				],
				"metallicFactor":0,
				"roughnessFactor":0.5
			}
		},
		{
			"doubleSided":true,
			"name":"Material.027",
			"pbrMetallicRoughness":{
				"baseColorFactor":[
					0.06839906424283981,
					0,
					0.09463111311197281,
					1
				],
				"metallicFactor":0,
				"roughnessFactor":0.5
			}
		},
		{
			"doubleSided":true,
			"extensions":{
				"KHR_materials_specular":{
					"specularColorFactor":[
						0.44039432324185296,
						0.44039432324185296,
						0.44039432324185296
					]
				},
				"KHR_materials_ior":{
					"ior":1.4500000476837158
				}
			},
			"name":"Material.029",
			"pbrMetallicRoughness":{
				"baseColorFactor":[
					0,
					0,
					0,
					1
				],
				"metallicFactor":0,
				"roughnessFactor":0.5
			}
		},
		{
			"doubleSided":true,
			"name":"Material.031",
			"pbrMetallicRoughness":{
				"baseColorFactor":[
					0.0832180455327034,
					0.07843399792909622,
					0.08353136479854584,
					1
				],
				"metallicFactor":0,
				"roughnessFactor":0.5
			}
		},
		{
			"doubleSided":true,
			"name":"Material.034",
			"pbrMetallicRoughness":{
				"baseColorFactor":[
					0,
					0,
					0,
					1
				],
				"metallicFactor":0,
				"roughnessFactor":0.5
			}
		},
		{
			"doubleSided":true,
			"name":"Material.038",
			"pbrMetallicRoughness":{
				"baseColorFactor":[
					0.020379163324832916,
					0.020379163324832916,
					0.020379163324832916,
					1
				],
				"metallicFactor":0,
				"roughnessFactor":0.5
			}
		},
		{
			"doubleSided":true,
			"name":"Material.043",
			"pbrMetallicRoughness":{
				"baseColorFactor":[
					0.020379163324832916,
					0.020379163324832916,
					0.020379163324832916,
					1
				],
				"metallicFactor":0,
				"roughnessFactor":0.5
			}
		},
		{
			"doubleSided":true,
			"name":"Material.045",
			"pbrMetallicRoughness":{
				"baseColorFactor":[
					0,
					0,
					0,
					1
				],
				"metallicFactor":0,
				"roughnessFactor":0.5
			}
		},
		{
			"doubleSided":true,
			"name":"Material.046",
			"pbrMetallicRoughness":{
				"baseColorFactor":[
					0.04696173593401909,
					0.04653201997280121,
					0.045270077884197235,
					1
				],
				"metallicFactor":0,
				"roughnessFactor":0.5
			}
		},
		{
			"doubleSided":true,
			"name":"Material.047",
			"pbrMetallicRoughness":{
				"baseColorFactor":[
					0.020379163324832916,
					0.020379163324832916,
					0.020379163324832916,
					1
				],
				"metallicFactor":0,
				"roughnessFactor":0.5
			}
		},
		{
			"doubleSided":true,
			"name":"Material.048",
			"pbrMetallicRoughness":{
				"baseColorFactor":[
					0,
					0,
					0,
					1
				],
				"metallicFactor":0,
				"roughnessFactor":0.5
			}
		},
		{
			"doubleSided":true,
			"extensions":{
				"KHR_materials_specular":{
					"specularColorFactor":[
						0.16938267664981926,
						0.16938267664981926,
						0.16938267664981926
					]
				},
				"KHR_materials_ior":{
					"ior":1.4500000476837158
				}
			},
			"name":"Material.049",
			"pbrMetallicRoughness":{
				"baseColorFactor":[
					0.020379163324832916,
					0.020379163324832916,
					0.020379163324832916,
					1
				],
				"metallicFactor":0,
				"roughnessFactor":0.5
			}
		},
		{
			"doubleSided":true,
			"name":"Material.050",
			"pbrMetallicRoughness":{
				"baseColorFactor":[
					0.020379163324832916,
					0.020379163324832916,
					0.020379163324832916,
					1
				],
				"metallicFactor":0,
				"roughnessFactor":0.5
			}
		},
		{
			"doubleSided":true,
			"name":"Material.052",
			"pbrMetallicRoughness":{
				"baseColorFactor":[
					0.0832180455327034,
					0.07843399792909622,
					0.08353136479854584,
					1
				],
				"metallicFactor":0,
				"roughnessFactor":0.5
			}
		},
		{
			"doubleSided":true,
			"name":"Material.053",
			"pbrMetallicRoughness":{
				"baseColorFactor":[
					0,
					0,
					0,
					1
				],
				"metallicFactor":0,
				"roughnessFactor":0.5
			}
		},
		{
			"doubleSided":true,
			"name":"Material.040",
			"pbrMetallicRoughness":{
				"baseColorFactor":[
					0.020379163324832916,
					0.020379163324832916,
					0.020379163324832916,
					1
				],
				"metallicFactor":0,
				"roughnessFactor":0.5
			}
		},
		{
			"doubleSided":true,
			"name":"Material.042",
			"pbrMetallicRoughness":{
				"baseColorFactor":[
					0.04696173593401909,
					0.04653201997280121,
					0.045270077884197235,
					1
				],
				"metallicFactor":0,
				"roughnessFactor":0.5
			}
		},
		{
			"doubleSided":true,
			"name":"Material.055",
			"pbrMetallicRoughness":{
				"baseColorFactor":[
					0,
					0,
					0,
					1
				],
				"metallicFactor":0,
				"roughnessFactor":0.5
			}
		},
		{
			"doubleSided":true,
			"name":"Material.010",
			"pbrMetallicRoughness":{
				"baseColorFactor":[
					0,
					0,
					0,
					1
				],
				"metallicFactor":0,
				"roughnessFactor":0.5
			}
		},
		{
			"doubleSided":true,
			"name":"Material.005",
			"pbrMetallicRoughness":{
				"baseColorFactor":[
					0.800000011920929,
					0.800000011920929,
					0.800000011920929,
					1
				],
				"metallicFactor":0,
				"roughnessFactor":0.4833333492279053
			}
		}
	],
	"meshes":[
		{
			"name":"Curve.002",
			"primitives":[
				{
					"attributes":{
						"POSITION":0,
						"TEXCOORD_0":1,
						"NORMAL":2
					},
					"indices":3
				}
			]
		},
		{
			"name":"Curve.005",
			"primitives":[
				{
					"attributes":{
						"POSITION":4,
						"TEXCOORD_0":5,
						"NORMAL":6
					},
					"indices":7,
					"material":0
				}
			]
		},
		{
			"name":"Mesh_0",
			"primitives":[
				{
					"attributes":{
						"POSITION":8,
						"TEXCOORD_0":9,
						"NORMAL":10
					},
					"indices":11,
					"material":1
				}
			]
		},
		{
			"name":"Cylinder.041",
			"primitives":[
				{
					"attributes":{
						"POSITION":12,
						"TEXCOORD_0":13,
						"NORMAL":14
					},
					"indices":15,
					"material":2
				},
				{
					"attributes":{
						"POSITION":16,
						"TEXCOORD_0":17,
						"NORMAL":18
					},
					"indices":19,
					"material":3
				},
				{
					"attributes":{
						"POSITION":20,
						"TEXCOORD_0":21,
						"NORMAL":22
					},
					"indices":23,
					"material":4
				},
				{
					"attributes":{
						"POSITION":24,
						"TEXCOORD_0":25,
						"NORMAL":26
					},
					"indices":27,
					"material":5
				},
				{
					"attributes":{
						"POSITION":28,
						"TEXCOORD_0":29,
						"NORMAL":30
					},
					"indices":31,
					"material":6
				},
				{
					"attributes":{
						"POSITION":32,
						"TEXCOORD_0":33,
						"NORMAL":34
					},
					"indices":31,
					"material":7
				},
				{
					"attributes":{
						"POSITION":35,
						"TEXCOORD_0":36,
						"NORMAL":37
					},
					"indices":38,
					"material":8
				},
				{
					"attributes":{
						"POSITION":39,
						"TEXCOORD_0":40,
						"NORMAL":41
					},
					"indices":42,
					"material":9
				},
				{
					"attributes":{
						"POSITION":43,
						"TEXCOORD_0":44,
						"NORMAL":45
					},
					"indices":31,
					"material":10
				},
				{
					"attributes":{
						"POSITION":46,
						"TEXCOORD_0":47,
						"NORMAL":48
					},
					"indices":31,
					"material":11
				},
				{
					"attributes":{
						"POSITION":49,
						"TEXCOORD_0":50,
						"NORMAL":51
					},
					"indices":52,
					"material":12
				},
				{
					"attributes":{
						"POSITION":53,
						"TEXCOORD_0":54,
						"NORMAL":55
					},
					"indices":27,
					"material":13
				},
				{
					"attributes":{
						"POSITION":56,
						"TEXCOORD_0":57,
						"NORMAL":58
					},
					"indices":31,
					"material":14
				},
				{
					"attributes":{
						"POSITION":59,
						"TEXCOORD_0":60,
						"NORMAL":61
					},
					"indices":62,
					"material":15
				},
				{
					"attributes":{
						"POSITION":63,
						"TEXCOORD_0":64,
						"NORMAL":65
					},
					"indices":31,
					"material":16
				},
				{
					"attributes":{
						"POSITION":66,
						"TEXCOORD_0":67,
						"NORMAL":68
					},
					"indices":62,
					"material":17
				},
				{
					"attributes":{
						"POSITION":69,
						"TEXCOORD_0":70,
						"NORMAL":71
					},
					"indices":62,
					"material":18
				},
				{
					"attributes":{
						"POSITION":72,
						"TEXCOORD_0":73,
						"NORMAL":74
					},
					"indices":27,
					"material":19
				},
				{
					"attributes":{
						"POSITION":75,
						"TEXCOORD_0":76,
						"NORMAL":77
					},
					"indices":78,
					"material":20
				},
				{
					"attributes":{
						"POSITION":79,
						"TEXCOORD_0":80,
						"NORMAL":81
					},
					"indices":62,
					"material":21
				},
				{
					"attributes":{
						"POSITION":82,
						"TEXCOORD_0":83,
						"NORMAL":84
					},
					"indices":62,
					"material":22
				},
				{
					"attributes":{
						"POSITION":85,
						"TEXCOORD_0":86,
						"NORMAL":87
					},
					"indices":62,
					"material":23
				},
				{
					"attributes":{
						"POSITION":88,
						"TEXCOORD_0":89,
						"NORMAL":90
					},
					"indices":62,
					"material":24
				},
				{
					"attributes":{
						"POSITION":91,
						"TEXCOORD_0":92,
						"NORMAL":93
					},
					"indices":94,
					"material":25
				},
				{
					"attributes":{
						"POSITION":95,
						"TEXCOORD_0":96,
						"NORMAL":97
					},
					"indices":98,
					"material":26
				},
				{
					"attributes":{
						"POSITION":99,
						"TEXCOORD_0":100,
						"NORMAL":101
					},
					"indices":102,
					"material":27
				},
				{
					"attributes":{
						"POSITION":103,
						"TEXCOORD_0":104,
						"NORMAL":105
					},
					"indices":94,
					"material":28
				},
				{
					"attributes":{
						"POSITION":106,
						"TEXCOORD_0":107,
						"NORMAL":108
					},
					"indices":94,
					"material":29
				},
				{
					"attributes":{
						"POSITION":109,
						"TEXCOORD_0":110,
						"NORMAL":111
					},
					"indices":112,
					"material":30
				},
				{
					"attributes":{
						"POSITION":113,
						"TEXCOORD_0":114,
						"NORMAL":115
					},
					"indices":42,
					"material":31
				},
				{
					"attributes":{
						"POSITION":116,
						"TEXCOORD_0":117,
						"NORMAL":118
					},
					"indices":94,
					"material":32
				},
				{
					"attributes":{
						"POSITION":119,
						"TEXCOORD_0":120,
						"NORMAL":121
					},
					"indices":122,
					"material":33
				},
				{
					"attributes":{
						"POSITION":123,
						"TEXCOORD_0":124,
						"NORMAL":125
					},
					"indices":94,
					"material":34
				},
				{
					"attributes":{
						"POSITION":126,
						"TEXCOORD_0":127,
						"NORMAL":128
					},
					"indices":129,
					"material":35
				},
				{
					"attributes":{
						"POSITION":130,
						"TEXCOORD_0":131,
						"NORMAL":132
					},
					"indices":23,
					"material":36
				},
				{
					"attributes":{
						"POSITION":133,
						"TEXCOORD_0":134,
						"NORMAL":135
					},
					"indices":94,
					"material":37
				},
				{
					"attributes":{
						"POSITION":136,
						"TEXCOORD_0":137,
						"NORMAL":138
					},
					"indices":31,
					"material":38
				},
				{
					"attributes":{
						"POSITION":139,
						"TEXCOORD_0":140,
						"NORMAL":141
					},
					"indices":142,
					"material":39
				},
				{
					"attributes":{
						"POSITION":143,
						"TEXCOORD_0":144,
						"NORMAL":145
					},
					"indices":112,
					"material":40
				},
				{
					"attributes":{
						"POSITION":146,
						"TEXCOORD_0":147,
						"NORMAL":148
					},
					"indices":149,
					"material":41
				}
			]
		},
		{
			"name":"Sphere",
			"primitives":[
				{
					"attributes":{
						"POSITION":150,
						"TEXCOORD_0":151,
						"NORMAL":152
					},
					"indices":153,
					"material":42
				}
			]
		}
	],
	"accessors":[
		{
			"bufferView":0,
			"componentType":5126,
			"count":4834,
			"max":[
				0.02711627446115017,
				0.009999999776482582,
				0.030053120106458664
			],
			"min":[
				-0.027844538912177086,
				-0.009999999776482582,
				-0.026415828615427017
			],
			"type":"VEC3"
		},
		{
			"bufferView":1,
			"componentType":5126,
			"count":4834,
			"type":"VEC2"
		},
		{
			"bufferView":2,
			"componentType":5126,
			"count":4834,
			"type":"VEC3"
		},
		{
			"bufferView":3,
			"componentType":5123,
			"count":8940,
			"type":"SCALAR"
		},
		{
			"bufferView":4,
			"componentType":5126,
			"count":5365,
			"max":[
				0.06932125985622406,
				0.009999999776482582,
				0.06685246527194977
			],
			"min":[
				-0.0644632875919342,
				-0.009999999776482582,
				-0.06689535081386566
			],
			"type":"VEC3"
		},
		{
			"bufferView":5,
			"componentType":5126,
			"count":5365,
			"type":"VEC2"
		},
		{
			"bufferView":6,
			"componentType":5126,
			"count":5365,
			"type":"VEC3"
		},
		{
			"bufferView":7,
			"componentType":5123,
			"count":15204,
			"type":"SCALAR"
		},
		{
			"bufferView":8,
			"componentType":5126,
			"count":16577,
			"max":[
				0.38641801476478577,
				0.357681006193161,
				0.12178800255060196
			],
			"min":[
				-0.38007500767707825,
				-0.9995089769363403,
				-0.1166049987077713
			],
			"type":"VEC3"
		},
		{
			"bufferView":9,
			"componentType":5126,
			"count":16577,
			"type":"VEC2"
		},
		{
			"bufferView":10,
			"componentType":5126,
			"count":16577,
			"type":"VEC3"
		},
		{
			"bufferView":11,
			"componentType":5123,
			"count":64593,
			"type":"SCALAR"
		},
		{
			"bufferView":12,
			"componentType":5126,
			"count":1040,
			"max":[
				0.8241121172904968,
				-1,
				5.930567264556885
			],
			"min":[
				-3.4856631755828857,
				-105.34968566894531,
				-0.9484059810638428
			],
			"type":"VEC3"
		},
		{
			"bufferView":13,
			"componentType":5126,
			"count":1040,
			"type":"VEC2"
		},
		{
			"bufferView":14,
			"componentType":5126,
			"count":1040,
			"type":"VEC3"
		},
		{
			"bufferView":15,
			"componentType":5123,
			"count":2976,
			"type":"SCALAR"
		},
		{
			"bufferView":16,
			"componentType":5126,
			"count":1130,
			"max":[
				0.0072939395904541016,
				103.61459350585938,
				5.144726753234863
			],
			"min":[
				-2.7374796867370605,
				-85.60340118408203,
				1.6278445720672607
			],
			"type":"VEC3"
		},
		{
			"bufferView":17,
			"componentType":5126,
			"count":1130,
			"type":"VEC2"
		},
		{
			"bufferView":18,
			"componentType":5126,
			"count":1130,
			"type":"VEC3"
		},
		{
			"bufferView":19,
			"componentType":5123,
			"count":4272,
			"type":"SCALAR"
		},
		{
			"bufferView":20,
			"componentType":5126,
			"count":192,
			"max":[
				-1.8472867012023926,
				-48.01129150390625,
				5.128288269042969
			],
			"min":[
				-2.996532440185547,
				-49.927398681640625,
				4.114748001098633
			],
			"type":"VEC3"
		},
		{
			"bufferView":21,
			"componentType":5126,
			"count":192,
			"type":"VEC2"
		},
		{
			"bufferView":22,
			"componentType":5126,
			"count":192,
			"type":"VEC3"
		},
		{
			"bufferView":23,
			"componentType":5123,
			"count":372,
			"type":"SCALAR"
		},
		{
			"bufferView":24,
			"componentType":5126,
			"count":130,
			"max":[
				-2.494541645050049,
				-55.21690368652344,
				5.776611328125
			],
			"min":[
				-3.5596704483032227,
				-57.13301086425781,
				4.721309661865234
			],
			"type":"VEC3"
		},
		{
			"bufferView":25,
			"componentType":5126,
			"count":130,
			"type":"VEC2"
		},
		{
			"bufferView":26,
			"componentType":5126,
			"count":130,
			"type":"VEC3"
		},
		{
			"bufferView":27,
			"componentType":5123,
			"count":372,
			"type":"SCALAR"
		},
		{
			"bufferView":28,
			"componentType":5126,
			"count":24,
			"max":[
				-2.6674811840057373,
				116.10798645019531,
				5.822561740875244
			],
			"min":[
				-3.078099250793457,
				-60.98234176635742,
				5.145928859710693
			],
			"type":"VEC3"
		},
		{
			"bufferView":29,
			"componentType":5126,
			"count":24,
			"type":"VEC2"
		},
		{
			"bufferView":30,
			"componentType":5126,
			"count":24,
			"type":"VEC3"
		},
		{
			"bufferView":31,
			"componentType":5123,
			"count":66,
			"type":"SCALAR"
		},
		{
			"bufferView":32,
			"componentType":5126,
			"count":24,
			"max":[
				-0.03342169523239136,
				116.31277465820312,
				6.441834449768066
			],
			"min":[
				-0.3473677635192871,
				-67.19522094726562,
				5.518517017364502
			],
			"type":"VEC3"
		},
		{
			"bufferView":33,
			"componentType":5126,
			"count":24,
			"type":"VEC2"
		},
		{
			"bufferView":34,
			"componentType":5126,
			"count":24,
			"type":"VEC3"
		},
		{
			"bufferView":35,
			"componentType":5126,
			"count":192,
			"max":[
				0.6061123609542847,
				-51.93810272216797,
				6.494418621063232
			],
			"min":[
				-0.6814414262771606,
				-53.854209899902344,
				5.300964832305908
			],
			"type":"VEC3"
		},
		{
			"bufferView":36,
			"componentType":5126,
			"count":192,
			"type":"VEC2"
		},
		{
			"bufferView":37,
			"componentType":5126,
			"count":192,
			"type":"VEC3"
		},
		{
			"bufferView":38,
			"componentType":5123,
			"count":372,
			"type":"SCALAR"
		},
		{
			"bufferView":39,
			"componentType":5126,
			"count":192,
			"max":[
				0.28770768642425537,
				-49.754859924316406,
				5.573497295379639
			],
			"min":[
				-0.8967660665512085,
				-51.67096710205078,
				4.466339588165283
			],
			"type":"VEC3"
		},
		{
			"bufferView":40,
			"componentType":5126,
			"count":192,
			"type":"VEC2"
		},
		{
			"bufferView":41,
			"componentType":5126,
			"count":192,
			"type":"VEC3"
		},
		{
			"bufferView":42,
			"componentType":5123,
			"count":372,
			"type":"SCALAR"
		},
		{
			"bufferView":43,
			"componentType":5126,
			"count":24,
			"max":[
				-0.24341484904289246,
				102.55035400390625,
				5.535688400268555
			],
			"min":[
				-0.7647053003311157,
				-56.10561752319336,
				4.910594940185547
			],
			"type":"VEC3"
		},
		{
			"bufferView":44,
			"componentType":5126,
			"count":24,
			"type":"VEC2"
		},
		{
			"bufferView":45,
			"componentType":5126,
			"count":24,
			"type":"VEC3"
		},
		{
			"bufferView":46,
			"componentType":5126,
			"count":24,
			"max":[
				-0.6798491477966309,
				128.57469177246094,
				7.64243745803833
			],
			"min":[
				-1.4500751495361328,
				-52.235050201416016,
				7.120469093322754
			],
			"type":"VEC3"
		},
		{
			"bufferView":47,
			"componentType":5126,
			"count":24,
			"type":"VEC2"
		},
		{
			"bufferView":48,
			"componentType":5126,
			"count":24,
			"type":"VEC3"
		},
		{
			"bufferView":49,
			"componentType":5126,
			"count":192,
			"max":[
				-0.3414432406425476,
				-50.41283416748047,
				8.183006286621094
			],
			"min":[
				-1.6030443906784058,
				-52.328941345214844,
				7.0833940505981445
			],
			"type":"VEC3"
		},
		{
			"bufferView":50,
			"componentType":5126,
			"count":192,
			"type":"VEC2"
		},
		{
			"bufferView":51,
			"componentType":5126,
			"count":192,
			"type":"VEC3"
		},
		{
			"bufferView":52,
			"componentType":5123,
			"count":372,
			"type":"SCALAR"
		},
		{
			"bufferView":53,
			"componentType":5126,
			"count":130,
			"max":[
				0.3213244080543518,
				-53.05177307128906,
				7.447678565979004
			],
			"min":[
				-0.8724814057350159,
				-54.96788024902344,
				6.297369956970215
			],
			"type":"VEC3"
		},
		{
			"bufferView":54,
			"componentType":5126,
			"count":130,
			"type":"VEC2"
		},
		{
			"bufferView":55,
			"componentType":5126,
			"count":130,
			"type":"VEC3"
		},
		{
			"bufferView":56,
			"componentType":5126,
			"count":24,
			"max":[
				-0.2413136065006256,
				123.62289428710938,
				7.1488165855407715
			],
			"min":[
				-0.7147001028060913,
				-55.22938919067383,
				6.443531036376953
			],
			"type":"VEC3"
		},
		{
			"bufferView":57,
			"componentType":5126,
			"count":24,
			"type":"VEC2"
		},
		{
			"bufferView":58,
			"componentType":5126,
			"count":24,
			"type":"VEC3"
		},
		{
			"bufferView":59,
			"componentType":5126,
			"count":192,
			"max":[
				-2.5529487133026123,
				-51.938087463378906,
				6.760512351989746
			],
			"min":[
				-3.8446314334869385,
				-53.85419464111328,
				5.538908958435059
			],
			"type":"VEC3"
		},
		{
			"bufferView":60,
			"componentType":5126,
			"count":192,
			"type":"VEC2"
		},
		{
			"bufferView":61,
			"componentType":5126,
			"count":192,
			"type":"VEC3"
		},
		{
			"bufferView":62,
			"componentType":5123,
			"count":372,
			"type":"SCALAR"
		},
		{
			"bufferView":63,
			"componentType":5126,
			"count":24,
			"max":[
				-2.9515528678894043,
				112.34046936035156,
				6.612171173095703
			],
			"min":[
				-3.264244556427002,
				-60.5991096496582,
				5.785616874694824
			],
			"type":"VEC3"
		},
		{
			"bufferView":64,
			"componentType":5126,
			"count":24,
			"type":"VEC2"
		},
		{
			"bufferView":65,
			"componentType":5126,
			"count":24,
			"type":"VEC3"
		},
		{
			"bufferView":66,
			"componentType":5126,
			"count":192,
			"max":[
				-0.2574906349182129,
				-57.914833068847656,
				7.418398857116699
			],
			"min":[
				-3.0106072425842285,
				-59.83094024658203,
				4.814650535583496
			],
			"type":"VEC3"
		},
		{
			"bufferView":67,
			"componentType":5126,
			"count":192,
			"type":"VEC2"
		},
		{
			"bufferView":68,
			"componentType":5126,
			"count":192,
			"type":"VEC3"
		},
		{
			"bufferView":69,
			"componentType":5126,
			"count":192,
			"max":[
				1.6199424266815186,
				-63.78229522705078,
				9.244140625
			],
			"min":[
				-4.927024841308594,
				-88.7471694946289,
				3.052372694015503
			],
			"type":"VEC3"
		},
		{
			"bufferView":70,
			"componentType":5126,
			"count":192,
			"type":"VEC2"
		},
		{
			"bufferView":71,
			"componentType":5126,
			"count":192,
			"type":"VEC3"
		},
		{
			"bufferView":72,
			"componentType":5126,
			"count":130,
			"max":[
				2.566267967224121,
				-56.16844940185547,
				2.7901439666748047
			],
			"min":[
				-2.6265668869018555,
				-77.03083038330078,
				-1.7147331237792969
			],
			"type":"VEC3"
		},
		{
			"bufferView":73,
			"componentType":5126,
			"count":130,
			"type":"VEC2"
		},
		{
			"bufferView":74,
			"componentType":5126,
			"count":130,
			"type":"VEC3"
		},
		{
			"bufferView":75,
			"componentType":5126,
			"count":16384,
			"max":[
				1.1002429723739624,
				-66.6951675415039,
				8.713981628417969
			],
			"min":[
				-4.4081196784973145,
				-512.1522827148438,
				3.5850605964660645
			],
			"type":"VEC3"
		},
		{
			"bufferView":76,
			"componentType":5126,
			"count":16384,
			"type":"VEC2"
		},
		{
			"bufferView":77,
			"componentType":5126,
			"count":16384,
			"type":"VEC3"
		},
		{
			"bufferView":78,
			"componentType":5123,
			"count":96774,
			"type":"SCALAR"
		},
		{
			"bufferView":79,
			"componentType":5126,
			"count":192,
			"max":[
				2.566267967224121,
				-56.16844940185547,
				2.7901439666748047
			],
			"min":[
				-2.6265668869018555,
				-77.03083038330078,
				-1.7147331237792969
			],
			"type":"VEC3"
		},
		{
			"bufferView":80,
			"componentType":5126,
			"count":192,
			"type":"VEC2"
		},
		{
			"bufferView":81,
			"componentType":5126,
			"count":192,
			"type":"VEC3"
		},
		{
			"bufferView":82,
			"componentType":5126,
			"count":192,
			"max":[
				1.6199424266815186,
				-63.78229522705078,
				9.244140625
			],
			"min":[
				-4.927024841308594,
				-88.7471694946289,
				3.052372694015503
			],
			"type":"VEC3"
		},
		{
			"bufferView":83,
			"componentType":5126,
			"count":192,
			"type":"VEC2"
		},
		{
			"bufferView":84,
			"componentType":5126,
			"count":192,
			"type":"VEC3"
		},
		{
			"bufferView":85,
			"componentType":5126,
			"count":192,
			"max":[
				1.6199424266815186,
				-63.78229522705078,
				9.244140625
			],
			"min":[
				-4.927024841308594,
				-88.7471694946289,
				3.052372694015503
			],
			"type":"VEC3"
		},
		{
			"bufferView":86,
			"componentType":5126,
			"count":192,
			"type":"VEC2"
		},
		{
			"bufferView":87,
			"componentType":5126,
			"count":192,
			"type":"VEC3"
		},
		{
			"bufferView":88,
			"componentType":5126,
			"count":192,
			"max":[
				1.6199424266815186,
				-63.78229522705078,
				9.244140625
			],
			"min":[
				-4.927024841308594,
				-88.7471694946289,
				3.052372694015503
			],
			"type":"VEC3"
		},
		{
			"bufferView":89,
			"componentType":5126,
			"count":192,
			"type":"VEC2"
		},
		{
			"bufferView":90,
			"componentType":5126,
			"count":192,
			"type":"VEC3"
		},
		{
			"bufferView":91,
			"componentType":5126,
			"count":48,
			"max":[
				1.232550859451294,
				128.57469177246094,
				7.64243745803833
			],
			"min":[
				-1.4500751495361328,
				-53.9050407409668,
				1.8067480325698853
			],
			"type":"VEC3"
		},
		{
			"bufferView":92,
			"componentType":5126,
			"count":48,
			"type":"VEC2"
		},
		{
			"bufferView":93,
			"componentType":5126,
			"count":48,
			"type":"VEC3"
		},
		{
			"bufferView":94,
			"componentType":5123,
			"count":132,
			"type":"SCALAR"
		},
		{
			"bufferView":95,
			"componentType":5126,
			"count":384,
			"max":[
				1.1967077255249023,
				-50.41283416748047,
				8.183006286621094
			],
			"min":[
				-1.6030443906784058,
				-53.14566421508789,
				1.6753535270690918
			],
			"type":"VEC3"
		},
		{
			"bufferView":96,
			"componentType":5126,
			"count":384,
			"type":"VEC2"
		},
		{
			"bufferView":97,
			"componentType":5126,
			"count":384,
			"type":"VEC3"
		},
		{
			"bufferView":98,
			"componentType":5123,
			"count":744,
			"type":"SCALAR"
		},
		{
			"bufferView":99,
			"componentType":5126,
			"count":260,
			"max":[
				2.0237009525299072,
				-53.05177307128906,
				7.447678565979004
			],
			"min":[
				-0.8724814057350159,
				-55.7846565246582,
				0.599238395690918
			],
			"type":"VEC3"
		},
		{
			"bufferView":100,
			"componentType":5126,
			"count":260,
			"type":"VEC2"
		},
		{
			"bufferView":101,
			"componentType":5126,
			"count":260,
			"type":"VEC3"
		},
		{
			"bufferView":102,
			"componentType":5123,
			"count":744,
			"type":"SCALAR"
		},
		{
			"bufferView":103,
			"componentType":5126,
			"count":48,
			"max":[
				1.729750156402588,
				123.62289428710938,
				7.1488165855407715
			],
			"min":[
				-0.7147001028060913,
				-56.0648307800293,
				1.1182680130004883
			],
			"type":"VEC3"
		},
		{
			"bufferView":104,
			"componentType":5126,
			"count":48,
			"type":"VEC2"
		},
		{
			"bufferView":105,
			"componentType":5126,
			"count":48,
			"type":"VEC3"
		},
		{
			"bufferView":106,
			"componentType":5126,
			"count":48,
			"max":[
				1.9337701797485352,
				116.31277465820312,
				6.441834449768066
			],
			"min":[
				-0.3473677635192871,
				-68.07542419433594,
				0.1697876751422882
			],
			"type":"VEC3"
		},
		{
			"bufferView":107,
			"componentType":5126,
			"count":48,
			"type":"VEC2"
		},
		{
			"bufferView":108,
			"componentType":5126,
			"count":48,
			"type":"VEC3"
		},
		{
			"bufferView":109,
			"componentType":5126,
			"count":384,
			"max":[
				1.9951400756835938,
				-51.93810272216797,
				6.494418621063232
			],
			"min":[
				-0.6814414262771606,
				-54.67097091674805,
				-0.4325284957885742
			],
			"type":"VEC3"
		},
		{
			"bufferView":110,
			"componentType":5126,
			"count":384,
			"type":"VEC2"
		},
		{
			"bufferView":111,
			"componentType":5126,
			"count":384,
			"type":"VEC3"
		},
		{
			"bufferView":112,
			"componentType":5123,
			"count":744,
			"type":"SCALAR"
		},
		{
			"bufferView":113,
			"componentType":5126,
			"count":192,
			"max":[
				0.28770768642425537,
				-49.754859924316406,
				5.573497295379639
			],
			"min":[
				-0.8967660665512085,
				-51.67096710205078,
				4.466339588165283
			],
			"type":"VEC3"
		},
		{
			"bufferView":114,
			"componentType":5126,
			"count":192,
			"type":"VEC2"
		},
		{
			"bufferView":115,
			"componentType":5126,
			"count":192,
			"type":"VEC3"
		},
		{
			"bufferView":116,
			"componentType":5126,
			"count":48,
			"max":[
				1.7416001558303833,
				102.55035400390625,
				5.535688400268555
			],
			"min":[
				-0.7647053003311157,
				-56.977657318115234,
				-0.4360908269882202
			],
			"type":"VEC3"
		},
		{
			"bufferView":117,
			"componentType":5126,
			"count":48,
			"type":"VEC2"
		},
		{
			"bufferView":118,
			"componentType":5126,
			"count":48,
			"type":"VEC3"
		},
		{
			"bufferView":119,
			"componentType":5126,
			"count":384,
			"max":[
				-1.0147979259490967,
				-51.938087463378906,
				6.760512351989746
			],
			"min":[
				-3.8446314334869385,
				-54.67097091674805,
				0.1308687925338745
			],
			"type":"VEC3"
		},
		{
			"bufferView":120,
			"componentType":5126,
			"count":384,
			"type":"VEC2"
		},
		{
			"bufferView":121,
			"componentType":5126,
			"count":384,
			"type":"VEC3"
		},
		{
			"bufferView":122,
			"componentType":5123,
			"count":744,
			"type":"SCALAR"
		},
		{
			"bufferView":123,
			"componentType":5126,
			"count":48,
			"max":[
				-1.8810886144638062,
				112.34046936035156,
				6.612171173095703
			],
			"min":[
				-3.264244556427002,
				-61.41585922241211,
				0.26283323764801025
			],
			"type":"VEC3"
		},
		{
			"bufferView":124,
			"componentType":5126,
			"count":48,
			"type":"VEC2"
		},
		{
			"bufferView":125,
			"componentType":5126,
			"count":48,
			"type":"VEC3"
		},
		{
			"bufferView":126,
			"componentType":5126,
			"count":72,
			"max":[
				0.9613808393478394,
				220.51654052734375,
				5.822561740875244
			],
			"min":[
				-3.078099250793457,
				-61.756710052490234,
				-0.901699960231781
			],
			"type":"VEC3"
		},
		{
			"bufferView":127,
			"componentType":5126,
			"count":72,
			"type":"VEC2"
		},
		{
			"bufferView":128,
			"componentType":5126,
			"count":72,
			"type":"VEC3"
		},
		{
			"bufferView":129,
			"componentType":5123,
			"count":198,
			"type":"SCALAR"
		},
		{
			"bufferView":130,
			"componentType":5126,
			"count":192,
			"max":[
				-1.8472867012023926,
				-48.01129150390625,
				5.128288269042969
			],
			"min":[
				-2.996532440185547,
				-49.927398681640625,
				4.114748001098633
			],
			"type":"VEC3"
		},
		{
			"bufferView":131,
			"componentType":5126,
			"count":192,
			"type":"VEC2"
		},
		{
			"bufferView":132,
			"componentType":5126,
			"count":192,
			"type":"VEC3"
		},
		{
			"bufferView":133,
			"componentType":5126,
			"count":48,
			"max":[
				-0.8974896669387817,
				110.67408752441406,
				5.141533851623535
			],
			"min":[
				-2.692012071609497,
				-45.90939712524414,
				-0.8342580795288086
			],
			"type":"VEC3"
		},
		{
			"bufferView":134,
			"componentType":5126,
			"count":48,
			"type":"VEC2"
		},
		{
			"bufferView":135,
			"componentType":5126,
			"count":48,
			"type":"VEC3"
		},
		{
			"bufferView":136,
			"componentType":5126,
			"count":24,
			"max":[
				-1.3181747198104858,
				121.6961669921875,
				2.13828444480896
			],
			"min":[
				-2.034392833709717,
				-81.42460632324219,
				1.1352683305740356
			],
			"type":"VEC3"
		},
		{
			"bufferView":137,
			"componentType":5126,
			"count":24,
			"type":"VEC2"
		},
		{
			"bufferView":138,
			"componentType":5126,
			"count":24,
			"type":"VEC3"
		},
		{
			"bufferView":139,
			"componentType":5126,
			"count":192,
			"max":[
				-0.9122668504714966,
				-49.243534088134766,
				2.2054076194763184
			],
			"min":[
				-2.095491409301758,
				-51.15964126586914,
				1.0985941886901855
			],
			"type":"VEC3"
		},
		{
			"bufferView":140,
			"componentType":5126,
			"count":192,
			"type":"VEC2"
		},
		{
			"bufferView":141,
			"componentType":5126,
			"count":192,
			"type":"VEC3"
		},
		{
			"bufferView":142,
			"componentType":5123,
			"count":372,
			"type":"SCALAR"
		},
		{
			"bufferView":143,
			"componentType":5126,
			"count":384,
			"max":[
				1.9951400756835938,
				-49.8083381652832,
				0.7686032652854919
			],
			"min":[
				-1.9372247457504272,
				-54.67097091674805,
				-0.8532840609550476
			],
			"type":"VEC3"
		},
		{
			"bufferView":144,
			"componentType":5126,
			"count":384,
			"type":"VEC2"
		},
		{
			"bufferView":145,
			"componentType":5126,
			"count":384,
			"type":"VEC3"
		},
		{
			"bufferView":146,
			"componentType":5126,
			"count":108,
			"max":[
				-1.3456820249557495,
				147.12709045410156,
				8.531986236572266
			],
			"min":[
				-3.0433921813964844,
				-54.98051834106445,
				7.4349517822265625
			],
			"type":"VEC3"
		},
		{
			"bufferView":147,
			"componentType":5126,
			"count":108,
			"type":"VEC2"
		},
		{
			"bufferView":148,
			"componentType":5126,
			"count":108,
			"type":"VEC3"
		},
		{
			"bufferView":149,
			"componentType":5123,
			"count":300,
			"type":"SCALAR"
		},
		{
			"bufferView":150,
			"componentType":5126,
			"count":559,
			"max":[
				0.9999997019767761,
				1,
				0.9999993443489075
			],
			"min":[
				-0.9999990463256836,
				-1,
				-1
			],
			"type":"VEC3"
		},
		{
			"bufferView":151,
			"componentType":5126,
			"count":559,
			"type":"VEC2"
		},
		{
			"bufferView":152,
			"componentType":5126,
			"count":559,
			"type":"VEC3"
		},
		{
			"bufferView":153,
			"componentType":5123,
			"count":2880,
			"type":"SCALAR"
		}
	],
	"bufferViews":[
		{
			"buffer":0,
			"byteLength":58008,
			"byteOffset":0,
			"target":34962
		},
		{
			"buffer":0,
			"byteLength":38672,
			"byteOffset":58008,
			"target":34962
		},
		{
			"buffer":0,
			"byteLength":58008,
			"byteOffset":96680,
			"target":34962
		},
		{
			"buffer":0,
			"byteLength":17880,
			"byteOffset":154688,
			"target":34963
		},
		{
			"buffer":0,
			"byteLength":64380,
			"byteOffset":172568,
			"target":34962
		},
		{
			"buffer":0,
			"byteLength":42920,
			"byteOffset":236948,
			"target":34962
		},
		{
			"buffer":0,
			"byteLength":64380,
			"byteOffset":279868,
			"target":34962
		},
		{
			"buffer":0,
			"byteLength":30408,
			"byteOffset":344248,
			"target":34963
		},
		{
			"buffer":0,
			"byteLength":198924,
			"byteOffset":374656,
			"target":34962
		},
		{
			"buffer":0,
			"byteLength":132616,
			"byteOffset":573580,
			"target":34962
		},
		{
			"buffer":0,
			"byteLength":198924,
			"byteOffset":706196,
			"target":34962
		},
		{
			"buffer":0,
			"byteLength":129186,
			"byteOffset":905120,
			"target":34963
		},
		{
			"buffer":0,
			"byteLength":12480,
			"byteOffset":1034308,
			"target":34962
		},
		{
			"buffer":0,
			"byteLength":8320,
			"byteOffset":1046788,
			"target":34962
		},
		{
			"buffer":0,
			"byteLength":12480,
			"byteOffset":1055108,
			"target":34962
		},
		{
			"buffer":0,
			"byteLength":5952,
			"byteOffset":1067588,
			"target":34963
		},
		{
			"buffer":0,
			"byteLength":13560,
			"byteOffset":1073540,
			"target":34962
		},
		{
			"buffer":0,
			"byteLength":9040,
			"byteOffset":1087100,
			"target":34962
		},
		{
			"buffer":0,
			"byteLength":13560,
			"byteOffset":1096140,
			"target":34962
		},
		{
			"buffer":0,
			"byteLength":8544,
			"byteOffset":1109700,
			"target":34963
		},
		{
			"buffer":0,
			"byteLength":2304,
			"byteOffset":1118244,
			"target":34962
		},
		{
			"buffer":0,
			"byteLength":1536,
			"byteOffset":1120548,
			"target":34962
		},
		{
			"buffer":0,
			"byteLength":2304,
			"byteOffset":1122084,
			"target":34962
		},
		{
			"buffer":0,
			"byteLength":744,
			"byteOffset":1124388,
			"target":34963
		},
		{
			"buffer":0,
			"byteLength":1560,
			"byteOffset":1125132,
			"target":34962
		},
		{
			"buffer":0,
			"byteLength":1040,
			"byteOffset":1126692,
			"target":34962
		},
		{
			"buffer":0,
			"byteLength":1560,
			"byteOffset":1127732,
			"target":34962
		},
		{
			"buffer":0,
			"byteLength":744,
			"byteOffset":1129292,
			"target":34963
		},
		{
			"buffer":0,
			"byteLength":288,
			"byteOffset":1130036,
			"target":34962
		},
		{
			"buffer":0,
			"byteLength":192,
			"byteOffset":1130324,
			"target":34962
		},
		{
			"buffer":0,
			"byteLength":288,
			"byteOffset":1130516,
			"target":34962
		},
		{
			"buffer":0,
			"byteLength":132,
			"byteOffset":1130804,
			"target":34963
		},
		{
			"buffer":0,
			"byteLength":288,
			"byteOffset":1130936,
			"target":34962
		},
		{
			"buffer":0,
			"byteLength":192,
			"byteOffset":1131224,
			"target":34962
		},
		{
			"buffer":0,
			"byteLength":288,
			"byteOffset":1131416,
			"target":34962
		},
		{
			"buffer":0,
			"byteLength":2304,
			"byteOffset":1131704,
			"target":34962
		},
		{
			"buffer":0,
			"byteLength":1536,
			"byteOffset":1134008,
			"target":34962
		},
		{
			"buffer":0,
			"byteLength":2304,
			"byteOffset":1135544,
			"target":34962
		},
		{
			"buffer":0,
			"byteLength":744,
			"byteOffset":1137848,
			"target":34963
		},
		{
			"buffer":0,
			"byteLength":2304,
			"byteOffset":1138592,
			"target":34962
		},
		{
			"buffer":0,
			"byteLength":1536,
			"byteOffset":1140896,
			"target":34962
		},
		{
			"buffer":0,
			"byteLength":2304,
			"byteOffset":1142432,
			"target":34962
		},
		{
			"buffer":0,
			"byteLength":744,
			"byteOffset":1144736,
			"target":34963
		},
		{
			"buffer":0,
			"byteLength":288,
			"byteOffset":1145480,
			"target":34962
		},
		{
			"buffer":0,
			"byteLength":192,
			"byteOffset":1145768,
			"target":34962
		},
		{
			"buffer":0,
			"byteLength":288,
			"byteOffset":1145960,
			"target":34962
		},
		{
			"buffer":0,
			"byteLength":288,
			"byteOffset":1146248,
			"target":34962
		},
		{
			"buffer":0,
			"byteLength":192,
			"byteOffset":1146536,
			"target":34962
		},
		{
			"buffer":0,
			"byteLength":288,
			"byteOffset":1146728,
			"target":34962
		},
		{
			"buffer":0,
			"byteLength":2304,
			"byteOffset":1147016,
			"target":34962
		},
		{
			"buffer":0,
			"byteLength":1536,
			"byteOffset":1149320,
			"target":34962
		},
		{
			"buffer":0,
			"byteLength":2304,
			"byteOffset":1150856,
			"target":34962
		},
		{
			"buffer":0,
			"byteLength":744,
			"byteOffset":1153160,
			"target":34963
		},
		{
			"buffer":0,
			"byteLength":1560,
			"byteOffset":1153904,
			"target":34962
		},
		{
			"buffer":0,
			"byteLength":1040,
			"byteOffset":1155464,
			"target":34962
		},
		{
			"buffer":0,
			"byteLength":1560,
			"byteOffset":1156504,
			"target":34962
		},
		{
			"buffer":0,
			"byteLength":288,
			"byteOffset":1158064,
			"target":34962
		},
		{
			"buffer":0,
			"byteLength":192,
			"byteOffset":1158352,
			"target":34962
		},
		{
			"buffer":0,
			"byteLength":288,
			"byteOffset":1158544,
			"target":34962
		},
		{
			"buffer":0,
			"byteLength":2304,
			"byteOffset":1158832,
			"target":34962
		},
		{
			"buffer":0,
			"byteLength":1536,
			"byteOffset":1161136,
			"target":34962
		},
		{
			"buffer":0,
			"byteLength":2304,
			"byteOffset":1162672,
			"target":34962
		},
		{
			"buffer":0,
			"byteLength":744,
			"byteOffset":1164976,
			"target":34963
		},
		{
			"buffer":0,
			"byteLength":288,
			"byteOffset":1165720,
			"target":34962
		},
		{
			"buffer":0,
			"byteLength":192,
			"byteOffset":1166008,
			"target":34962
		},
		{
			"buffer":0,
			"byteLength":288,
			"byteOffset":1166200,
			"target":34962
		},
		{
			"buffer":0,
			"byteLength":2304,
			"byteOffset":1166488,
			"target":34962
		},
		{
			"buffer":0,
			"byteLength":1536,
			"byteOffset":1168792,
			"target":34962
		},
		{
			"buffer":0,
			"byteLength":2304,
			"byteOffset":1170328,
			"target":34962
		},
		{
			"buffer":0,
			"byteLength":2304,
			"byteOffset":1172632,
			"target":34962
		},
		{
			"buffer":0,
			"byteLength":1536,
			"byteOffset":1174936,
			"target":34962
		},
		{
			"buffer":0,
			"byteLength":2304,
			"byteOffset":1176472,
			"target":34962
		},
		{
			"buffer":0,
			"byteLength":1560,
			"byteOffset":1178776,
			"target":34962
		},
		{
			"buffer":0,
			"byteLength":1040,
			"byteOffset":1180336,
			"target":34962
		},
		{
			"buffer":0,
			"byteLength":1560,
			"byteOffset":1181376,
			"target":34962
		},
		{
			"buffer":0,
			"byteLength":196608,
			"byteOffset":1182936,
			"target":34962
		},
		{
			"buffer":0,
			"byteLength":131072,
			"byteOffset":1379544,
			"target":34962
		},
		{
			"buffer":0,
			"byteLength":196608,
			"byteOffset":1510616,
			"target":34962
		},
		{
			"buffer":0,
			"byteLength":193548,
			"byteOffset":1707224,
			"target":34963
		},
		{
			"buffer":0,
			"byteLength":2304,
			"byteOffset":1900772,
			"target":34962
		},
		{
			"buffer":0,
			"byteLength":1536,
			"byteOffset":1903076,
			"target":34962
		},
		{
			"buffer":0,
			"byteLength":2304,
			"byteOffset":1904612,
			"target":34962
		},
		{
			"buffer":0,
			"byteLength":2304,
			"byteOffset":1906916,
			"target":34962
		},
		{
			"buffer":0,
			"byteLength":1536,
			"byteOffset":1909220,
			"target":34962
		},
		{
			"buffer":0,
			"byteLength":2304,
			"byteOffset":1910756,
			"target":34962
		},
		{
			"buffer":0,
			"byteLength":2304,
			"byteOffset":1913060,
			"target":34962
		},
		{
			"buffer":0,
			"byteLength":1536,
			"byteOffset":1915364,
			"target":34962
		},
		{
			"buffer":0,
			"byteLength":2304,
			"byteOffset":1916900,
			"target":34962
		},
		{
			"buffer":0,
			"byteLength":2304,
			"byteOffset":1919204,
			"target":34962
		},
		{
			"buffer":0,
			"byteLength":1536,
			"byteOffset":1921508,
			"target":34962
		},
		{
			"buffer":0,
			"byteLength":2304,
			"byteOffset":1923044,
			"target":34962
		},
		{
			"buffer":0,
			"byteLength":576,
			"byteOffset":1925348,
			"target":34962
		},
		{
			"buffer":0,
			"byteLength":384,
			"byteOffset":1925924,
			"target":34962
		},
		{
			"buffer":0,
			"byteLength":576,
			"byteOffset":1926308,
			"target":34962
		},
		{
			"buffer":0,
			"byteLength":264,
			"byteOffset":1926884,
			"target":34963
		},
		{
			"buffer":0,
			"byteLength":4608,
			"byteOffset":1927148,
			"target":34962
		},
		{
			"buffer":0,
			"byteLength":3072,
			"byteOffset":1931756,
			"target":34962
		},
		{
			"buffer":0,
			"byteLength":4608,
			"byteOffset":1934828,
			"target":34962
		},
		{
			"buffer":0,
			"byteLength":1488,
			"byteOffset":1939436,
			"target":34963
		},
		{
			"buffer":0,
			"byteLength":3120,
			"byteOffset":1940924,
			"target":34962
		},
		{
			"buffer":0,
			"byteLength":2080,
			"byteOffset":1944044,
			"target":34962
		},
		{
			"buffer":0,
			"byteLength":3120,
			"byteOffset":1946124,
			"target":34962
		},
		{
			"buffer":0,
			"byteLength":1488,
			"byteOffset":1949244,
			"target":34963
		},
		{
			"buffer":0,
			"byteLength":576,
			"byteOffset":1950732,
			"target":34962
		},
		{
			"buffer":0,
			"byteLength":384,
			"byteOffset":1951308,
			"target":34962
		},
		{
			"buffer":0,
			"byteLength":576,
			"byteOffset":1951692,
			"target":34962
		},
		{
			"buffer":0,
			"byteLength":576,
			"byteOffset":1952268,
			"target":34962
		},
		{
			"buffer":0,
			"byteLength":384,
			"byteOffset":1952844,
			"target":34962
		},
		{
			"buffer":0,
			"byteLength":576,
			"byteOffset":1953228,
			"target":34962
		},
		{
			"buffer":0,
			"byteLength":4608,
			"byteOffset":1953804,
			"target":34962
		},
		{
			"buffer":0,
			"byteLength":3072,
			"byteOffset":1958412,
			"target":34962
		},
		{
			"buffer":0,
			"byteLength":4608,
			"byteOffset":1961484,
			"target":34962
		},
		{
			"buffer":0,
			"byteLength":1488,
			"byteOffset":1966092,
			"target":34963
		},
		{
			"buffer":0,
			"byteLength":2304,
			"byteOffset":1967580,
			"target":34962
		},
		{
			"buffer":0,
			"byteLength":1536,
			"byteOffset":1969884,
			"target":34962
		},
		{
			"buffer":0,
			"byteLength":2304,
			"byteOffset":1971420,
			"target":34962
		},
		{
			"buffer":0,
			"byteLength":576,
			"byteOffset":1973724,
			"target":34962
		},
		{
			"buffer":0,
			"byteLength":384,
			"byteOffset":1974300,
			"target":34962
		},
		{
			"buffer":0,
			"byteLength":576,
			"byteOffset":1974684,
			"target":34962
		},
		{
			"buffer":0,
			"byteLength":4608,
			"byteOffset":1975260,
			"target":34962
		},
		{
			"buffer":0,
			"byteLength":3072,
			"byteOffset":1979868,
			"target":34962
		},
		{
			"buffer":0,
			"byteLength":4608,
			"byteOffset":1982940,
			"target":34962
		},
		{
			"buffer":0,
			"byteLength":1488,
			"byteOffset":1987548,
			"target":34963
		},
		{
			"buffer":0,
			"byteLength":576,
			"byteOffset":1989036,
			"target":34962
		},
		{
			"buffer":0,
			"byteLength":384,
			"byteOffset":1989612,
			"target":34962
		},
		{
			"buffer":0,
			"byteLength":576,
			"byteOffset":1989996,
			"target":34962
		},
		{
			"buffer":0,
			"byteLength":864,
			"byteOffset":1990572,
			"target":34962
		},
		{
			"buffer":0,
			"byteLength":576,
			"byteOffset":1991436,
			"target":34962
		},
		{
			"buffer":0,
			"byteLength":864,
			"byteOffset":1992012,
			"target":34962
		},
		{
			"buffer":0,
			"byteLength":396,
			"byteOffset":1992876,
			"target":34963
		},
		{
			"buffer":0,
			"byteLength":2304,
			"byteOffset":1993272,
			"target":34962
		},
		{
			"buffer":0,
			"byteLength":1536,
			"byteOffset":1995576,
			"target":34962
		},
		{
			"buffer":0,
			"byteLength":2304,
			"byteOffset":1997112,
			"target":34962
		},
		{
			"buffer":0,
			"byteLength":576,
			"byteOffset":1999416,
			"target":34962
		},
		{
			"buffer":0,
			"byteLength":384,
			"byteOffset":1999992,
			"target":34962
		},
		{
			"buffer":0,
			"byteLength":576,
			"byteOffset":2000376,
			"target":34962
		},
		{
			"buffer":0,
			"byteLength":288,
			"byteOffset":2000952,
			"target":34962
		},
		{
			"buffer":0,
			"byteLength":192,
			"byteOffset":2001240,
			"target":34962
		},
		{
			"buffer":0,
			"byteLength":288,
			"byteOffset":2001432,
			"target":34962
		},
		{
			"buffer":0,
			"byteLength":2304,
			"byteOffset":2001720,
			"target":34962
		},
		{
			"buffer":0,
			"byteLength":1536,
			"byteOffset":2004024,
			"target":34962
		},
		{
			"buffer":0,
			"byteLength":2304,
			"byteOffset":2005560,
			"target":34962
		},
		{
			"buffer":0,
			"byteLength":744,
			"byteOffset":2007864,
			"target":34963
		},
		{
			"buffer":0,
			"byteLength":4608,
			"byteOffset":2008608,
			"target":34962
		},
		{
			"buffer":0,
			"byteLength":3072,
			"byteOffset":2013216,
			"target":34962
		},
		{
			"buffer":0,
			"byteLength":4608,
			"byteOffset":2016288,
			"target":34962
		},
		{
			"buffer":0,
			"byteLength":1296,
			"byteOffset":2020896,
			"target":34962
		},
		{
			"buffer":0,
			"byteLength":864,
			"byteOffset":2022192,
			"target":34962
		},
		{
			"buffer":0,
			"byteLength":1296,
			"byteOffset":2023056,
			"target":34962
		},
		{
			"buffer":0,
			"byteLength":600,
			"byteOffset":2024352,
			"target":34963
		},
		{
			"buffer":0,
			"byteLength":6708,
			"byteOffset":2024952,
			"target":34962
		},
		{
			"buffer":0,
			"byteLength":4472,
			"byteOffset":2031660,
			"target":34962
		},
		{
			"buffer":0,
			"byteLength":6708,
			"byteOffset":2036132,
			"target":34962
		},
		{
			"buffer":0,
			"byteLength":5760,
			"byteOffset":2042840,
			"target":34963
		}
	],
	"buffers":[
		{
			"byteLength":2048600,
			"uri":"2GALERIADUPLACHACKRAS.bin"
		}
	]
}
